<?xml version="1.0" encoding="UTF-8" standalone="no"?>
<!-- Created with Inkscape (http://www.inkscape.org/) -->

<svg
   xmlns:dc="http://purl.org/dc/elements/1.1/"
   xmlns:cc="http://creativecommons.org/ns#"
   xmlns:rdf="http://www.w3.org/1999/02/22-rdf-syntax-ns#"
   xmlns:svg="http://www.w3.org/2000/svg"
   xmlns="http://www.w3.org/2000/svg"
   xmlns:xlink="http://www.w3.org/1999/xlink"
   xmlns:sodipodi="http://sodipodi.sourceforge.net/DTD/sodipodi-0.dtd"
   xmlns:inkscape="http://www.inkscape.org/namespaces/inkscape"
   width="368.01279mm"
   height="175.27029mm"
   viewBox="0 0 1303.9823 621.03647"
   id="svg2"
   version="1.1"
   inkscape:version="0.91 r13725"
   sodipodi:docname="logoOA.svg"
   inkscape:export-filename="/home/dvd/Documents/Programming/OpenAstronomy/logo/logoOA_svg.png"
   inkscape:export-xdpi="90"
   inkscape:export-ydpi="90">
  <defs
     id="defs4" />
  <sodipodi:namedview
     id="base"
     pagecolor="#ffffff"
     bordercolor="#666666"
     borderopacity="1.0"
     inkscape:pageopacity="0.0"
     inkscape:pageshadow="2"
     inkscape:zoom="0.4850293"
     inkscape:cx="583.4447"
     inkscape:cy="259.10311"
     inkscape:document-units="px"
     inkscape:current-layer="layer1"
     showgrid="false"
     fit-margin-top="0"
     fit-margin-left="0"
     fit-margin-right="0"
     fit-margin-bottom="0"
     inkscape:window-width="1366"
     inkscape:window-height="702"
     inkscape:window-x="0"
     inkscape:window-y="27"
     inkscape:window-maximized="1" />
  <metadata
     id="metadata7">
    <rdf:RDF>
      <cc:Work
         rdf:about="">
        <dc:format>image/svg+xml</dc:format>
        <dc:type
           rdf:resource="http://purl.org/dc/dcmitype/StillImage" />
        <dc:title></dc:title>
      </cc:Work>
    </rdf:RDF>
  </metadata>
  <g
     inkscape:label="Layer 1"
     inkscape:groupmode="layer"
     id="layer1"
     transform="translate(292.07882,-193.23251)">
    <image
       sodipodi:absref="/home/dvd/Documents/Programming/OpenAstronomy/logo/logoOA.png"
       xlink:href="logoOA.png"
       width="610"
       height="610"
       preserveAspectRatio="none"
       style="image-rendering:optimizeQuality"
       id="image3500"
       x="73.541252"
       y="193.23251" />
    <path
       style="fill:#000000"
       id="path3507"
       d="m 99.056491,741.68473 c 13.957069,-1.5916 28.039909,0.5132 41.718539,3.26615 17.08328,3.52717 33.83195,8.61088 50.55129,13.56889 23.77722,6.44332 47.85268,11.50981 71.93682,16.63707 31.5719,5.94303 63.51013,9.562 95.53769,11.84281 37.36823,2.70234 74.7495,-0.0397 111.85767,-4.44916 42.43456,-5.53742 83.11252,-18.64547 123.8894,-31.00462 48.44694,-15.92737 95.95253,-34.51367 142.78114,-54.66537 27.61692,-13.30574 27.77334,-13.0764 55.23182,-27.5594 9.5183,-5.02044 18.69334,-10.71028 28.41887,-15.31646 6.78676,-3.21433 -25.71792,15.46693 -19.58544,11.13279 8.86974,-6.26871 18.57564,-11.26185 27.82477,-16.95595 9.2726,-5.70855 18.49323,-11.5011 27.73985,-17.25165 34.9686,-22.58428 70.52169,-44.20857 106.43947,-65.24023 0,0 52.67182,-20.24441 52.67182,-20.24441 l 0,0 c -36.13364,20.97483 -71.92876,42.51097 -106.9751,65.27096 -70.12684,43.74814 -141.02808,86.7012 -216.21263,121.29439 -47.31832,20.24699 -95.21776,39.22158 -144.23414,55.00145 -41.01548,12.5364 -82.13068,25.16595 -124.87018,30.43357 -37.50272,4.24834 -75.27445,6.82398 -113.00245,3.9189 -32.32581,-2.3777 -64.56289,-6.15784 -96.42798,-12.17812 -24.43542,-4.95924 -48.84402,-9.99675 -72.92724,-16.50327 -16.73958,-4.67665 -33.45135,-9.63222 -50.550982,-12.82912 -13.655432,-2.21808 -27.552138,-3.84487 -41.281651,-1.14442 0,0 49.468644,-37.0248 49.468644,-37.0248 z"
       inkscape:connector-curvature="0" />
    <path
       inkscape:connector-curvature="0"
       d="m 624.93489,280.52947 c -13.95707,1.5916 -28.03991,-0.5132 -41.71854,-3.26615 -17.08328,-3.52717 -33.83195,-8.61088 -50.55129,-13.56889 -23.77722,-6.44332 -47.85268,-11.50981 -71.93682,-16.63707 -31.5719,-5.94303 -63.51013,-9.562 -95.53769,-11.84281 -37.36823,-2.70234 -74.7495,0.0397 -111.85767,4.44916 -42.43456,5.53742 -83.11252,18.64547 -123.8894,31.00462 -48.446937,15.92737 -95.952527,34.51367 -142.781137,54.66537 -27.61692,13.30574 -27.77334,13.0764 -55.23182,27.5594 -9.5183,5.02044 -18.69334,10.71028 -28.41887,15.31646 -6.786763,3.21433 25.71792,-15.46693 19.58544,-11.13279 -8.86974,6.26871 -18.57564,11.26185 -27.824773,16.95595 -9.2726,5.70855 -18.49323,11.5011 -27.73985,17.25165 -34.9686,22.58428 -70.52169,44.20857 -106.43947,65.24023 0,0 -52.67182,20.24441 -52.67182,20.24441 l 0,0 c 36.13364,-20.97483 71.92876,-42.51097 106.9751,-65.27096 70.12684,-43.74814 141.028083,-86.7012 216.212633,-121.29439 47.31832,-20.24699 95.217757,-39.22158 144.234137,-55.00145 41.01548,-12.5364 82.13068,-25.16595 124.87018,-30.43357 37.50272,-4.24834 75.27445,-6.82398 113.00245,-3.9189 32.32581,2.3777 64.56289,6.15784 96.42798,12.17812 24.43542,4.95924 48.84402,9.99675 72.92724,16.50327 16.73958,4.67665 33.45135,9.63222 50.55098,12.82912 13.65543,2.21808 27.55215,3.84487 41.28165,1.14442 0,0 -49.46864,37.0248 -49.46864,37.0248 z"
       id="path3570"
       style="fill:#000000" />
    <text
       xml:space="preserve"
       style="font-style:normal;font-weight:normal;font-size:40px;line-height:125%;font-family:sans-serif;letter-spacing:0px;word-spacing:0px;fill:#000000;fill-opacity:1;stroke:none;stroke-width:1px;stroke-linecap:butt;stroke-linejoin:miter;stroke-opacity:1"
       id="text3572"
       sodipodi:linespacing="125%"
       transform="translate(28.424931,61.907558)"><textPath
         xlink:href="#path3597"
         id="textPath3599"
         style="font-size:70px">Open</textPath></text>
    <text
       xml:space="preserve"
       style="font-style:normal;font-weight:normal;font-size:60px;line-height:125%;font-family:sans-serif;letter-spacing:0px;word-spacing:0px;fill:#000000;fill-opacity:1;stroke:none;stroke-width:1px;stroke-linecap:butt;stroke-linejoin:miter;stroke-opacity:1"
       id="text3576"
       sodipodi:linespacing="125%"
       transform="translate(5.8279026,-27.682537)"><textPath
         xlink:href="#path3592"
         id="textPath3594"
         style="font-size:70px">  Astronomy</textPath></text>
    <flowRoot
       xml:space="preserve"
       id="flowRoot3583"
       style="fill:black;stroke:none;stroke-opacity:1;stroke-width:1px;stroke-linejoin:miter;stroke-linecap:butt;fill-opacity:1;font-family:sans-serif;font-style:normal;font-weight:normal;font-size:40px;line-height:125%;letter-spacing:0px;word-spacing:0px"><flowRegion
         id="flowRegion3585"><rect
           id="rect3587"
           width="16.026731"
           height="53.9081"
           x="26.225561"
           y="84.869461" /></flowRegion><flowPara
         id="flowPara3589"></flowPara></flowRoot>    <path
       style="fill:none;fill-rule:evenodd;stroke:#000000;stroke-width:1px;stroke-linecap:butt;stroke-linejoin:miter;stroke-opacity:1"
       d="m 617.07398,751.61906 110.7301,-39.33835 62.65,-37.88136 42.2523,-29.13951 52.4511,-24.76859 36.4244,-21.85464 33.5104,-18.94068 32.0535,-18.94068"
       id="path3592"
       inkscape:connector-curvature="0" />
    <path
       style="fill:none;fill-rule:evenodd;stroke:#000000;stroke-width:1px;stroke-linecap:butt;stroke-linejoin:miter;stroke-opacity:1"
       d="m -235.25678,452.93905 55.36508,-42.2523 39.33834,-23.31161 33.51044,-20.39765 29.139515,-17.48371 37.88137,-18.94069 34.9674107,-20.39765 33.5104393,-13.11279 80.133655,-30.59648"
       id="path3597"
       inkscape:connector-curvature="0" />
  </g>
</svg>
